<?xml version="1.0" encoding="UTF-8"?>
<svg width="78px" height="19px" viewBox="0 0 78 19" version="1.1" xmlns="http://www.w3.org/2000/svg" xmlns:xlink="http://www.w3.org/1999/xlink">
    <title>VIZION</title>
    <g id="Page-1" stroke="none" stroke-width="1" fill="none" fill-rule="evenodd">
        <g id="Artboard" transform="translate(-20.000000, -20.000000)" fill="#FFDD00" fill-rule="nonzero">
            <g id="VIZION" transform="translate(20.673500, 20.960000)">
                <path d="M6.1005,17.04 C5.847,17.04 5.6465,16.97575 5.499,16.84725 C5.3515,16.71875 5.24425,16.56175 5.17725,16.37625 L0.03825,0.9645 C0.01275,0.8815 0,0.8065 0,0.7395 C0,0.605 0.049625,0.488125 0.148875,0.388875 C0.248125,0.289625 0.365,0.24 0.4995,0.24 L2.61225,0.24 C2.83725,0.24 3.011625,0.301875 3.135375,0.425625 C3.259125,0.549375 3.3355,0.666 3.3645,0.7755 L7.4115,13.1235 L11.4585,0.7755 C11.497,0.666 11.57575,0.549375 11.69475,0.425625 C11.81375,0.301875 11.98575,0.24 12.21075,0.24 L14.3235,0.24 C14.458,0.24 14.574875,0.289625 14.674125,0.388875 C14.773375,0.488125 14.823,0.605 14.823,0.7395 C14.823,0.8065 14.81025,0.8815 14.78475,0.9645 L9.64575,16.37625 C9.58825,16.56175 9.48575,16.71875 9.33825,16.84725 C9.19075,16.97575 8.9855,17.04 8.7225,17.04 L6.1005,17.04 Z" id="V"></path>
                <path d="M17.949,17.04 C17.7825,17.04 17.64475,16.9855 17.53575,16.8765 C17.42675,16.7675 17.37225,16.62975 17.37225,16.46325 L17.37225,0.81675 C17.37225,0.65025 17.42675,0.5125 17.53575,0.4035 C17.64475,0.2945 17.7825,0.24 17.949,0.24 L20.20875,0.24 C20.37525,0.24 20.513,0.2945 20.622,0.4035 C20.731,0.5125 20.7855,0.65025 20.7855,0.81675 L20.7855,16.46325 C20.7855,16.62975 20.731,16.7675 20.622,16.8765 C20.513,16.9855 20.37525,17.04 20.20875,17.04 L17.949,17.04 Z" id="I"></path>
                <path d="M24.17775,17.04 C24.01125,17.04 23.8735,16.983125 23.7645,16.869375 C23.6555,16.755625 23.601,16.6155 23.601,16.449 L23.601,14.76 C23.601,14.5265 23.647375,14.337 23.740125,14.1915 C23.832875,14.046 23.9065,13.94125 23.961,13.87725 L32.3055,3.07425 L24.4035,3.07425 C24.237,3.07425 24.09925,3.01975 23.99025,2.91075 C23.88125,2.80175 23.82675,2.664 23.82675,2.4975 L23.82675,0.831 C23.82675,0.655 23.88125,0.5125 23.99025,0.4035 C24.09925,0.2945 24.237,0.24 24.4035,0.24 L35.88825,0.24 C36.06425,0.24 36.20675,0.2945 36.31575,0.4035 C36.42475,0.5125 36.47925,0.655 36.47925,0.831 L36.47925,2.5005 C36.47925,2.689 36.448875,2.848875 36.388125,2.980125 C36.327375,3.111375 36.25375,3.22975 36.16725,3.33525 L27.9975,14.18625 L36.1575,14.18625 C36.3335,14.18625 36.476,14.24075 36.585,14.34975 C36.694,14.45875 36.7485,14.60125 36.7485,14.77725 L36.7485,16.46325 C36.7485,16.62975 36.694,16.7675 36.585,16.8765 C36.476,16.9855 36.3335,17.04 36.1575,17.04 L24.17775,17.04 Z" id="Z"></path>
                <path d="M40.12125,17.04 C39.95475,17.04 39.817,16.9855 39.708,16.8765 C39.599,16.7675 39.5445,16.62975 39.5445,16.46325 L39.5445,0.81675 C39.5445,0.65025 39.599,0.5125 39.708,0.4035 C39.817,0.2945 39.95475,0.24 40.12125,0.24 L42.381,0.24 C42.5475,0.24 42.68525,0.2945 42.79425,0.4035 C42.90325,0.5125 42.95775,0.65025 42.95775,0.81675 L42.95775,16.46325 C42.95775,16.62975 42.90325,16.7675 42.79425,16.8765 C42.68525,16.9855 42.5475,17.04 42.381,17.04 L40.12125,17.04 Z" id="I"></path>
                <path d="M53.1675,17.28 C51.742,17.28 50.514875,17.042375 49.486125,16.567125 C48.457375,16.091875 47.657625,15.3655 47.086875,14.388 C46.516125,13.4105 46.2035,12.186 46.149,10.7145 C46.133,10.0205 46.125,9.33875 46.125,8.66925 C46.125,7.99975 46.133,7.3115 46.149,6.6045 C46.2035,5.149 46.524,3.930875 47.1105,2.950125 C47.697,1.969375 48.508625,1.2325 49.545375,0.7395 C50.582125,0.2465 51.7895,0 53.1675,0 C54.5455,0 55.752875,0.2465 56.789625,0.7395 C57.826375,1.2325 58.642,1.969375 59.2365,2.950125 C59.831,3.930875 60.1475,5.149 60.186,6.6045 C60.218,7.3115 60.234,7.99975 60.234,8.66925 C60.234,9.33875 60.218,10.0205 60.186,10.7145 C60.141,12.186 59.83075,13.4105 59.25525,14.388 C58.67975,15.3655 57.877625,16.091875 56.848875,16.567125 C55.820125,17.042375 54.593,17.28 53.1675,17.28 Z M53.1675,14.52375 C54.199,14.52375 55.043375,14.213375 55.700625,13.592625 C56.357875,12.971875 56.70875,11.96925 56.75325,10.58475 C56.78525,9.87775 56.80125,9.22625 56.80125,8.63025 C56.80125,8.03425 56.78525,7.38925 56.75325,6.69525 C56.72775,5.77225 56.55825,5.0195 56.24475,4.437 C55.93125,3.8545 55.511125,3.42875 54.984375,3.15975 C54.457625,2.89075 53.852,2.75625 53.1675,2.75625 C52.499,2.75625 51.89975,2.89075 51.36975,3.15975 C50.83975,3.42875 50.418,3.8545 50.1045,4.437 C49.791,5.0195 49.61675,5.77225 49.58175,6.69525 C49.56575,7.38925 49.55775,8.03425 49.55775,8.63025 C49.55775,9.22625 49.56575,9.87775 49.58175,10.58475 C49.63275,11.96925 49.987625,12.971875 50.646375,13.592625 C51.305125,14.213375 52.1455,14.52375 53.1675,14.52375 Z" id="O"></path>
                <path d="M63.954,17.04 C63.7875,17.04 63.64975,16.9855 63.54075,16.8765 C63.43175,16.7675 63.37725,16.62975 63.37725,16.46325 L63.37725,0.831 C63.37725,0.655 63.43175,0.5125 63.54075,0.4035 C63.64975,0.2945 63.7875,0.24 63.954,0.24 L65.79375,0.24 C66.01875,0.24 66.18425,0.293 66.29025,0.399 C66.39625,0.505 66.46375,0.58375 66.49275,0.63525 L73.39875,11.373 L73.39875,0.831 C73.39875,0.655 73.45325,0.5125 73.56225,0.4035 C73.67125,0.2945 73.809,0.24 73.9755,0.24 L75.99675,0.24 C76.17275,0.24 76.31525,0.2945 76.42425,0.4035 C76.53325,0.5125 76.58775,0.655 76.58775,0.831 L76.58775,16.449 C76.58775,16.6155 76.53325,16.755625 76.42425,16.869375 C76.31525,16.983125 76.1775,17.04 76.011,17.04 L74.157,17.04 C73.932,17.04 73.768875,16.985375 73.667625,16.876125 C73.566375,16.766875 73.4965,16.68975 73.458,16.64475 L66.56625,6.15 L66.56625,16.46325 C66.56625,16.62975 66.51175,16.7675 66.40275,16.8765 C66.29375,16.9855 66.15125,17.04 65.97525,17.04 L63.954,17.04 Z" id="N"></path>
            </g>
        </g>
    </g>
</svg>